<?xml version="1.0" encoding="utf-8"?>
<!-- Generator: Adobe Illustrator 18.0.0, SVG Export Plug-In . SVG Version: 6.00 Build 0)  -->
<!DOCTYPE svg PUBLIC "-//W3C//DTD SVG 1.1//EN" "http://www.w3.org/Graphics/SVG/1.1/DTD/svg11.dtd">
<svg version="1.1" id="Layer_1" xmlns="http://www.w3.org/2000/svg" xmlns:xlink="http://www.w3.org/1999/xlink" x="0px" y="0px"
	 viewBox="200 0 560 560" style="enable-background:new 200 0 560 560;" xml:space="preserve">
<path style="fill:#19B934;" d="M480,0C324.7,0,200,124.7,200,280s124.7,280,280,280s280-124.7,280-280S635.3,0,480,0z M641.6,192.2
	L641.6,192.2L438,403.5c-2.5,2.5-5.1,3.8-8.9,3.8c-3.8,0-7.6-1.3-8.9-3.8l-99.3-106.9l-2.5-2.5c-2.5-2.5-3.8-6.4-3.8-8.9
	s1.3-6.4,3.8-8.9l17.8-17.8c5.1-5.1,12.7-5.1,17.8,0l1.3,1.3l70,75.1c2.5,2.5,6.4,2.5,8.9,0l170.5-176.9h1.3
	c5.1-5.1,12.7-5.1,17.8,0l17.8,17.8C646.7,179.5,646.7,187.1,641.6,192.2L641.6,192.2z"/>
</svg>
